<svg width="94" height="96" viewBox="0 0 94 96" fill="none" xmlns="http://www.w3.org/2000/svg">
<path d="M47 0L53.4086 19.9221L67.8264 4.75349L64.9565 25.4833L84.5279 18.0725L72.9479 35.5041L93.7965 37.319L75.8 48L93.7965 58.681L72.9479 60.4959L84.5279 77.9275L64.9565 70.5167L67.8264 91.2465L53.4086 76.0779L47 96L40.5914 76.0779L26.1736 91.2465L29.0435 70.5167L9.47209 77.9275L21.0521 60.4959L0.203461 58.681L18.2 48L0.203461 37.319L21.0521 35.5041L9.47209 18.0725L29.0435 25.4833L26.1736 4.75349L40.5914 19.9221L47 0Z" fill="#0057ff"/>
</svg>
