<svg width="160" height="160" viewBox="0 0 160 160" fill="none" xmlns="http://www.w3.org/2000/svg">
<path d="M0 80C0 62.2897 0 53.4346 1.82667 46.1422C7.29139 24.3258 24.3258 7.29139 46.1422 1.82667C53.4346 0 62.2897 0 80 0C97.7103 0 106.565 0 113.858 1.82667C135.674 7.29139 152.709 24.3258 158.173 46.1422C160 53.4346 160 62.2897 160 80C160 97.7103 160 106.565 158.173 113.858C152.709 135.674 135.674 152.709 113.858 158.173C106.565 160 97.7103 160 80 160C62.2897 160 53.4346 160 46.1422 158.173C24.3258 152.709 7.29139 135.674 1.82667 113.858C0 106.565 0 97.7103 0 80Z" fill="black"/>
<path d="M96.7939 98.5945L96.7831 98.6053L96.7737 98.6171C96.5441 98.8922 96.1888 99.0568 95.6421 99.0568H85.6801C84.7577 99.0568 84.0798 98.8005 83.6012 98.3261C83.1298 97.7953 82.6908 97.2289 82.2738 96.6367L61.7671 65.0097L63.4403 62.5534C64.0461 61.7056 64.6095 61.0458 65.1368 60.5741C65.6855 60.1955 66.384 59.9948 67.2522 59.9948H70.1424C71.0154 59.9948 71.674 60.1976 72.1555 60.5683C72.6846 61.0404 73.2501 61.7021 73.8584 62.5533L96.6518 96.0405C96.8294 96.3374 96.9777 96.6013 97.0946 96.8338C97.2087 97.1226 97.2503 97.3224 97.2503 97.4421C97.2503 97.9167 97.098 98.2908 96.7939 98.5945ZM91.8739 60.7096C90.9971 60.7096 90.3361 60.914 89.8525 61.2863C90.4026 60.909 91.1014 60.7096 91.9701 60.7096H91.8739ZM85.7704 66.4394L82.2198 73.0198L89.2698 83.388L93.1479 77.7805L85.7704 66.4394ZM73.0168 84.486L65.2486 96.914C65.0702 97.2122 64.9202 97.4774 64.8028 97.7109C64.6882 98.0009 64.6468 98.2021 64.6468 98.3224C64.6468 98.7991 64.7997 99.1737 65.1051 99.4787L65.1162 99.4914L65.1259 99.5011C65.3565 99.7774 65.7135 99.9441 66.2626 99.9441H75.5769C76.5034 99.9441 77.1842 99.6864 77.6649 99.2099C78.1384 98.6768 78.5794 98.108 78.9982 97.5131L80.2313 95.6115L73.0168 84.486ZM121.897 98.7263L121.886 98.737L121.876 98.7489C121.647 99.024 121.291 99.1886 120.745 99.1886H110.783C109.86 99.1886 109.182 98.9323 108.704 98.4579C108.232 97.9271 107.793 97.3607 107.376 96.7685L86.8697 65.1414L88.5429 62.6851C89.1487 61.8373 89.7121 61.1776 90.2394 60.7059C90.7881 60.3273 91.4866 60.1266 92.3548 60.1266H95.245C96.118 60.1266 96.7766 60.3294 97.2581 60.7001C97.7872 61.1721 98.3527 61.8338 98.961 62.6851L121.754 96.1722C121.932 96.4691 122.08 96.7331 122.197 96.9656C122.311 97.2543 122.353 97.4541 122.353 97.5739C122.353 98.0485 122.201 98.4226 121.897 98.7263ZM66.6396 60.7752C65.7627 60.7752 65.1017 60.9793 64.6181 61.3516L64.6141 61.3557C65.1649 60.9765 65.8653 60.7753 66.7361 60.7753L66.6396 60.7752ZM60.5355 66.5051L40.0136 96.9803C39.8352 97.2785 39.686 97.543 39.5686 97.7765C39.454 98.0666 39.4118 98.2675 39.4118 98.3878C39.4118 98.8644 39.5648 99.2396 39.8702 99.5446L39.8823 99.5567L39.8917 99.5675C40.1223 99.8438 40.4793 100.01 41.0284 100.01H51.0337C51.9603 100.01 52.6415 99.7518 53.1222 99.2753C53.5957 98.7422 54.0358 98.1744 54.4546 97.5796L67.4486 76.4737L60.5355 66.5051Z" fill="white"/>
<path d="M8.57105 83.622L13.8175 83.6182L12.7049 84.0092L18.7575 79.6978L18.7591 81.8513L14.6132 84.7738L14.6129 84.3691L18.7631 87.3001L18.7646 89.3668L12.7057 85.0932L13.8188 85.4681L8.5724 85.472L8.57105 83.622Z" fill="white"/>
<path d="M8.45971 91.6822C8.45258 90.9499 8.59572 90.3126 8.88914 89.7701C9.18256 89.2276 9.60241 88.8044 10.1487 88.5003C10.7046 88.1962 11.3583 88.0405 12.1098 88.0332C12.8613 88.0258 13.5132 88.1689 14.0652 88.4622C14.6173 88.7555 15.0454 89.1705 15.3493 89.7071C15.6532 90.2438 15.8088 90.8782 15.8159 91.6105C15.823 92.3427 15.6799 92.9801 15.3865 93.5225C15.0931 94.065 14.6732 94.4882 14.1269 94.7923C13.5807 95.0963 12.9318 95.252 12.1803 95.2593C11.4287 95.2666 10.7721 95.1237 10.2104 94.8304C9.65828 94.5371 9.23026 94.1221 8.92632 93.5855C8.62239 93.0488 8.46685 92.4144 8.45971 91.6822ZM9.83268 91.6688C9.83794 92.2083 10.0349 92.64 10.4234 92.9638C10.8217 93.2876 11.4014 93.4457 12.1625 93.4383C12.9333 93.4308 13.505 93.2614 13.8775 92.9302C14.2597 92.5988 14.4482 92.1634 14.4429 91.6238C14.4377 91.0843 14.2408 90.6526 13.8522 90.3288C13.4732 90.0049 12.8984 89.8466 12.1276 89.8542C11.3664 89.8616 10.7899 90.031 10.3981 90.3624C10.0159 90.6938 9.82742 91.1292 9.83268 91.6688Z" fill="white"/>
<path d="M8.62219 98.915C8.59585 98.3279 8.67993 97.837 8.87443 97.4425C9.07855 97.0475 9.39287 96.7441 9.81739 96.5322C10.2423 96.3298 10.7773 96.2142 11.4222 96.1853L15.7104 95.993L15.7913 97.7978L11.4743 97.9914C11.147 98.0061 10.8746 98.0617 10.6571 98.1582C10.44 98.2644 10.2826 98.4113 10.185 98.599C10.0877 98.7962 10.0456 99.0393 10.0585 99.328C10.0732 99.6553 10.1581 99.936 10.3133 100.17C10.4785 100.414 10.6989 100.597 10.9745 100.719C11.2601 100.851 11.5858 100.909 11.9516 100.892L15.9222 100.714L16.0031 102.519L8.94271 102.836L8.8637 101.074L10.3364 101.008L10.3455 101.21C9.81664 101.032 9.40336 100.741 9.10566 100.34C8.80838 99.9483 8.64723 99.4733 8.62219 98.915Z" fill="white"/>
<path d="M9.09234 104.231L16.1049 103.351L16.3243 105.1L14.6321 105.313L14.6142 105.169C15.2046 105.231 15.6725 105.44 16.0181 105.794C16.3732 106.148 16.6154 106.647 16.7448 107.291L16.8561 107.83L15.3504 108.136L15.1205 107.116C14.99 106.54 14.7532 106.123 14.4101 105.865C14.0765 105.606 13.6373 105.51 13.0924 105.579L9.3208 106.052L9.09234 104.231Z" fill="white"/>
<path d="M11.8588 116.583C11.3707 115.274 11.3355 114.146 11.7534 113.198C12.1837 112.256 13.0669 111.536 14.403 111.038L20.0365 108.937L20.6829 110.671L15.063 112.766C14.2053 113.086 13.6322 113.521 13.3436 114.071C13.0674 114.626 13.069 115.279 13.3485 116.028C13.6279 116.777 14.0521 117.267 14.6212 117.497C15.1993 117.723 15.9172 117.677 16.7749 117.357L22.3948 115.261L23.0362 116.981L17.4027 119.082C16.0665 119.58 14.9292 119.619 13.9905 119.197C13.0609 118.773 12.3504 117.902 11.8588 116.583Z" fill="white"/>
<path d="M14.3813 121.978L23.4045 117.245L24.2639 118.883L15.2406 123.617L14.3813 121.978Z" fill="white"/>
<path d="M15.1735 125.561L14.8054 124.193L26.6498 121.292L27.0179 122.661L15.1735 125.561Z" fill="white"/>
<path d="M20.5274 131.689C19.6484 130.603 19.2564 129.544 19.3513 128.513C19.4598 127.483 20.0683 126.519 21.1768 125.622L25.8502 121.84L27.0141 123.278L22.3519 127.051C21.6404 127.627 21.2352 128.221 21.1364 128.834C21.0511 129.449 21.26 130.067 21.7631 130.689C22.2663 131.31 22.8242 131.64 23.4368 131.677C24.057 131.708 24.7228 131.435 25.4343 130.859L30.0966 127.086L31.2513 128.513L26.5779 132.295C25.4694 133.192 24.4033 133.591 23.3795 133.49C22.3631 133.382 21.4124 132.782 20.5274 131.689Z" fill="white"/>
<path d="M23.4704 135.112L30.2933 133.649L29.772 134.249L30.2622 127.515L31.8878 128.927L31.45 133.927L31.0027 133.538L35.8811 132.396L37.5176 133.818L30.9176 135.245L31.4389 134.645L30.9332 141.595L29.2966 140.174L29.7486 134.937L30.2286 135.354L25.1179 136.543L23.4704 135.112Z" fill="white"/>
<path d="M36.4114 144.93C35.8677 144.639 35.4583 144.25 35.183 143.764C34.9162 143.282 34.7977 142.738 34.8276 142.131C34.862 141.516 35.0565 140.877 35.4112 140.214C35.7705 139.543 36.1921 139.031 36.6761 138.678C37.1647 138.317 37.6833 138.113 38.2321 138.068C38.7893 138.028 39.3397 138.153 39.8834 138.444C40.4015 138.721 40.7835 139.09 41.0294 139.549C41.2837 140.013 41.3674 140.49 41.2805 140.979L41.1403 140.904L43.289 136.89L44.8818 137.743L40.0728 146.726L38.5183 145.894L39.2277 144.569L39.3424 144.63C38.9785 145.003 38.5307 145.217 37.999 145.271C37.4672 145.326 36.938 145.212 36.4114 144.93ZM37.5054 143.958C37.9811 144.213 38.4543 144.247 38.925 144.062C39.4003 143.869 39.8175 143.436 40.1768 142.765C40.5406 142.086 40.6667 141.503 40.5553 141.017C40.4483 140.522 40.157 140.148 39.6813 139.893C39.2056 139.639 38.7324 139.604 38.2617 139.789C37.7955 139.966 37.3805 140.394 37.0167 141.073C36.6575 141.745 36.5291 142.332 36.6314 142.834C36.7383 143.329 37.0297 143.703 37.5054 143.958Z" fill="white"/>
<path d="M44.4644 148.525C43.7128 148.252 43.1163 147.876 42.675 147.398C42.2337 146.919 41.9574 146.368 41.8462 145.743C41.744 145.122 41.8213 144.458 42.078 143.751C42.3282 143.063 42.6874 142.512 43.1557 142.098C43.6331 141.687 44.1735 141.427 44.7769 141.318C45.3926 141.204 46.022 141.263 46.6649 141.497C47.2988 141.728 47.7928 142.061 48.1468 142.497C48.5009 142.933 48.7097 143.445 48.7731 144.032C48.8457 144.622 48.7569 145.261 48.5067 145.949L48.3241 146.452L43.3117 144.63L43.6672 143.652L47.4842 145.04L47.1928 145.164C47.4166 144.549 47.4519 144.028 47.2987 143.604C47.1488 143.17 46.8203 142.861 46.3132 142.676C45.9329 142.538 45.5739 142.51 45.2364 142.593C44.9113 142.669 44.617 142.844 44.3536 143.118C44.1026 143.385 43.8965 143.741 43.7352 144.185L43.7006 144.28C43.5196 144.778 43.4468 145.218 43.4823 145.6C43.5177 145.982 43.6598 146.31 43.9084 146.585C44.1571 146.86 44.5078 147.08 44.9606 147.244C45.3319 147.379 45.7229 147.46 46.1337 147.486C46.5478 147.503 46.9532 147.446 47.3499 147.313L47.4107 148.627C46.9983 148.774 46.5241 148.838 45.9882 148.817C45.4523 148.797 44.9444 148.699 44.4644 148.525Z" fill="white"/>
<path d="M50.5989 150.267C50.2123 150.186 49.8421 150.073 49.4883 149.93C49.1439 149.789 48.8328 149.63 48.5549 149.453C48.279 149.267 48.0468 149.06 47.8582 148.833L48.555 147.769C48.759 147.97 48.9857 148.155 49.2353 148.326C49.4849 148.497 49.7499 148.641 50.0303 148.759C50.3107 148.877 50.5923 148.966 50.8751 149.026C51.3277 149.121 51.6783 149.116 51.9269 149.011C52.187 148.898 52.3438 148.715 52.3974 148.46C52.4431 148.243 52.4024 148.062 52.2754 147.917C52.1597 147.765 51.9618 147.63 51.6814 147.512L50.3237 146.945C49.763 146.709 49.3598 146.402 49.1142 146.026C48.88 145.642 48.8155 145.2 48.9208 144.7C49.0161 144.248 49.221 143.882 49.5357 143.604C49.8597 143.327 50.2622 143.146 50.7431 143.06C51.2239 142.975 51.7519 142.992 52.3271 143.113C52.6571 143.183 52.9707 143.283 53.2679 143.415C53.5672 143.537 53.8406 143.688 54.0882 143.868C54.3472 144.041 54.5606 144.243 54.7283 144.476L54.0032 145.534C53.8558 145.346 53.6752 145.175 53.4613 145.021C53.2495 144.858 53.0222 144.722 52.7795 144.612C52.5483 144.494 52.3148 144.411 52.0791 144.361C51.6171 144.264 51.2561 144.271 50.9961 144.384C50.7455 144.499 50.5923 144.688 50.5367 144.952C50.495 145.15 50.5263 145.329 50.6305 145.489C50.7347 145.648 50.9185 145.781 51.182 145.885L52.5397 146.452C53.1287 146.694 53.5471 146.999 53.7946 147.366C54.0517 147.735 54.1266 148.174 54.0193 148.684C53.922 149.146 53.7161 149.516 53.4014 149.794C53.0868 150.072 52.689 150.255 52.2082 150.34C51.7293 150.417 51.1929 150.392 50.5989 150.267Z" fill="white"/>
<path d="M55.4102 142.217L55.592 140.463L57.6046 140.671L57.4228 142.425L55.4102 142.217ZM54.6403 150.768L55.3688 143.738L57.1658 143.924L56.4373 150.954L54.6403 150.768Z" fill="white"/>
<path d="M61.0437 153.978C60.3891 153.952 59.776 153.85 59.2046 153.673C58.6424 153.505 58.1509 153.259 57.7301 152.933L58.3006 151.698C58.5632 151.882 58.8414 152.038 59.1352 152.166C59.4286 152.303 59.7282 152.406 60.0339 152.477C60.3397 152.547 60.6466 152.588 60.9547 152.601C61.5997 152.627 62.0875 152.487 62.418 152.182C62.7578 151.887 62.9401 151.432 62.9649 150.816L63.0173 149.516L63.1473 149.521C62.9831 150.006 62.6639 150.389 62.1897 150.669C61.7256 150.939 61.2047 151.063 60.6271 151.04C59.9916 151.014 59.4439 150.847 58.9838 150.539C58.5241 150.222 58.1749 149.793 57.9363 149.253C57.6978 148.713 57.5926 148.092 57.621 147.389C57.6493 146.686 57.804 146.08 58.0849 145.571C58.3662 145.052 58.7485 144.657 59.2319 144.388C59.7157 144.108 60.2753 143.981 60.9107 144.007C61.5076 144.031 62.0215 144.201 62.4523 144.517C62.8931 144.824 63.1712 145.221 63.2866 145.708L63.1711 145.704L63.2299 144.245L64.9917 144.316L64.7355 150.67C64.7048 151.431 64.5444 152.061 64.2542 152.56C63.9637 153.069 63.5486 153.438 63.009 153.667C62.469 153.906 61.8139 154.009 61.0437 153.978ZM61.1734 149.688C61.7318 149.71 62.1824 149.535 62.5253 149.163C62.8681 148.792 63.053 148.273 63.0798 147.609C63.1065 146.945 62.9638 146.418 62.6517 146.03C62.3399 145.631 61.9048 145.421 61.3464 145.399C60.788 145.376 60.3373 145.551 59.9945 145.923C59.652 146.285 59.4674 146.798 59.4406 147.462C59.4138 148.127 59.5563 148.658 59.8681 149.056C60.1799 149.455 60.615 149.665 61.1734 149.688Z" fill="white"/>
<path d="M66.266 151.381L66.3209 144.314L68.0841 144.327L68.0731 145.744L67.9142 145.742C68.1301 145.233 68.4607 144.85 68.9059 144.594C69.3609 144.328 69.8726 144.197 70.441 144.201C71.0095 144.205 71.476 144.315 71.8405 144.53C72.2049 144.745 72.477 145.07 72.6567 145.505C72.8365 145.93 72.9238 146.47 72.9187 147.125L72.8853 151.432L71.0787 151.418L71.1115 147.198C71.1143 146.832 71.0685 146.533 70.9739 146.301C70.889 146.069 70.7506 145.899 70.5587 145.792C70.3766 145.675 70.141 145.615 69.8519 145.613C69.5051 145.61 69.201 145.685 68.9396 145.837C68.6784 145.98 68.4744 146.19 68.3277 146.468C68.1811 146.737 68.1063 147.054 68.1035 147.42L68.0726 151.395L66.266 151.381Z" fill="white"/>
<path d="M77.8643 151.574C77.0646 151.574 76.3757 151.424 75.7977 151.125C75.2197 150.826 74.7718 150.402 74.454 149.853C74.1459 149.304 73.992 148.653 73.9922 147.902C73.9925 147.169 74.1421 146.529 74.441 145.979C74.7495 145.43 75.1688 145.002 75.6988 144.694C76.2385 144.376 76.8504 144.217 77.5345 144.217C78.209 144.218 78.787 144.362 79.2687 144.651C79.7504 144.941 80.1212 145.35 80.3811 145.88C80.6507 146.41 80.7854 147.042 80.7852 147.774L80.785 148.309L75.4518 148.307L75.4522 147.266L79.5135 147.268L79.2822 147.484C79.2824 146.829 79.138 146.328 78.8491 145.981C78.5602 145.624 78.1459 145.446 77.6063 145.446C77.2017 145.446 76.8548 145.542 76.5656 145.734C76.2861 145.917 76.0692 146.182 75.915 146.529C75.7703 146.866 75.6979 147.271 75.6977 147.743L75.6977 147.844C75.6975 148.374 75.7793 148.813 75.9429 149.16C76.1066 149.507 76.3522 149.767 76.6798 149.94C77.0073 150.114 77.4119 150.201 77.8937 150.201C78.2888 150.201 78.6838 150.143 79.0789 150.028C79.474 149.903 79.8354 149.71 80.1631 149.45L80.6685 150.664C80.3312 150.944 79.9072 151.165 79.3964 151.329C78.8857 151.492 78.375 151.574 77.8643 151.574Z" fill="white"/>
<path d="M82.2403 151.43L82.2354 144.362L83.9986 144.361L83.9998 146.067L83.8553 146.067C83.9898 145.488 84.2545 145.05 84.6493 144.751C85.0441 144.442 85.5691 144.264 86.2243 144.215L86.7735 144.171L86.8902 145.703L85.8496 145.805C85.2619 145.863 84.8188 146.047 84.5203 146.355C84.2219 146.654 84.0728 147.078 84.0732 147.627L84.0758 151.429L82.2403 151.43Z" fill="white"/>
<path d="M87.8276 153.343L87.0884 152.767C87.2996 152.555 87.4627 152.352 87.5776 152.159C87.6925 151.975 87.7737 151.787 87.8212 151.594C87.8783 151.401 87.9065 151.204 87.9058 151.001L88.2975 151.419L86.939 151.424L86.9316 149.415L88.955 149.408L88.9598 150.737C88.9611 151.065 88.9237 151.373 88.8476 151.663C88.7812 151.952 88.6666 152.232 88.5038 152.502C88.3411 152.782 88.1157 153.062 87.8276 153.343Z" fill="white"/>
<path d="M97.0044 151.348L92.8577 141.369L94.7626 141.265L98.0304 149.454L97.4531 149.485L99.9436 140.983L101.315 140.909L104.611 149.096L104.106 149.123L106.51 140.626L108.314 140.528L105.245 150.9L103.715 150.983L100.548 143.31L100.88 143.292L98.5341 151.264L97.0044 151.348Z" fill="white"/>
<path d="M111.812 149.683C111.038 149.885 110.334 149.914 109.699 149.771C109.065 149.628 108.524 149.331 108.078 148.879C107.641 148.426 107.328 147.835 107.138 147.108C106.954 146.399 106.936 145.742 107.087 145.135C107.247 144.526 107.544 144.005 107.979 143.573C108.421 143.129 108.973 142.821 109.635 142.648C110.288 142.478 110.884 142.472 111.423 142.631C111.962 142.789 112.424 143.091 112.81 143.539C113.204 143.983 113.494 144.56 113.679 145.269L113.814 145.786L108.653 147.131L108.39 146.124L112.32 145.1L112.151 145.368C111.986 144.734 111.72 144.286 111.353 144.023C110.983 143.751 110.537 143.683 110.015 143.819C109.623 143.921 109.312 144.102 109.081 144.361C108.857 144.609 108.714 144.92 108.652 145.294C108.597 145.657 108.629 146.067 108.748 146.524L108.774 146.622C108.908 147.135 109.097 147.538 109.343 147.833C109.589 148.127 109.893 148.317 110.254 148.402C110.614 148.487 111.028 148.469 111.494 148.347C111.876 148.248 112.244 148.092 112.597 147.881C112.948 147.66 113.249 147.382 113.5 147.048L114.296 148.095C114.04 148.45 113.686 148.772 113.233 149.059C112.78 149.346 112.306 149.555 111.812 149.683Z" fill="white"/>
<path d="M119.279 147.053C118.728 147.284 118.186 147.35 117.653 147.25C117.129 147.146 116.703 146.892 116.376 146.486L116.509 146.43L117.091 147.815L115.465 148.498L111.519 139.104L113.185 138.404L114.948 142.602L114.788 142.669C114.747 142.174 114.875 141.707 115.172 141.269C115.469 140.831 115.888 140.498 116.43 140.271C117.007 140.028 117.567 139.955 118.109 140.051C118.651 140.148 119.149 140.398 119.601 140.804C120.05 141.201 120.422 141.75 120.717 142.452C121.008 143.145 121.141 143.799 121.118 144.415C121.091 145.022 120.917 145.555 120.598 146.013C120.287 146.468 119.847 146.814 119.279 147.053ZM118.281 145.983C118.778 145.774 119.103 145.429 119.256 144.946C119.405 144.455 119.332 143.859 119.038 143.157C118.739 142.446 118.366 141.981 117.919 141.762C117.467 141.533 116.993 141.523 116.495 141.732C115.998 141.941 115.673 142.287 115.52 142.769C115.363 143.242 115.434 143.834 115.733 144.545C116.028 145.247 116.403 145.717 116.858 145.954C117.309 146.182 117.783 146.192 118.281 145.983Z" fill="white"/>
<path d="M128.218 142.076C127.713 142.431 127.182 142.622 126.624 142.65C126.074 142.672 125.535 142.533 125.006 142.233C124.471 141.926 123.988 141.465 123.556 140.85C123.118 140.228 122.85 139.621 122.752 139.03C122.649 138.431 122.7 137.876 122.907 137.366C123.121 136.85 123.48 136.415 123.984 136.06C124.465 135.722 124.966 135.546 125.487 135.533C126.016 135.514 126.479 135.654 126.877 135.951L126.747 136.042L124.127 132.319L125.605 131.279L131.468 139.613L130.026 140.627L129.161 139.398L129.267 139.323C129.437 139.816 129.427 140.312 129.236 140.812C129.046 141.311 128.706 141.733 128.218 142.076ZM127.841 140.662C128.283 140.352 128.526 139.945 128.572 139.441C128.613 138.929 128.414 138.362 127.976 137.74C127.533 137.109 127.069 136.735 126.585 136.616C126.095 136.489 125.63 136.581 125.188 136.892C124.747 137.202 124.503 137.609 124.457 138.113C124.405 138.609 124.601 139.172 125.045 139.802C125.483 140.425 125.95 140.803 126.445 140.938C126.935 141.065 127.4 140.973 127.841 140.662Z" fill="white"/>
<path d="M135.051 136.498C134.469 137.046 133.865 137.41 133.24 137.589C132.614 137.768 131.997 137.767 131.389 137.585C130.788 137.397 130.23 137.029 129.715 136.482C129.212 135.949 128.882 135.381 128.722 134.776C128.57 134.165 128.581 133.566 128.755 132.978C128.93 132.376 129.266 131.841 129.764 131.372C130.255 130.909 130.775 130.618 131.324 130.498C131.872 130.378 132.423 130.421 132.976 130.629C133.536 130.829 134.067 131.196 134.569 131.729L134.936 132.118L131.055 135.776L130.341 135.018L133.297 132.233L133.277 132.549C132.828 132.073 132.379 131.807 131.93 131.753C131.476 131.692 131.052 131.846 130.659 132.216C130.365 132.494 130.178 132.802 130.1 133.14C130.022 133.465 130.046 133.807 130.172 134.165C130.298 134.509 130.523 134.853 130.847 135.197L130.916 135.271C131.28 135.656 131.64 135.919 131.997 136.059C132.354 136.199 132.711 136.22 133.069 136.122C133.426 136.023 133.78 135.809 134.131 135.479C134.418 135.208 134.666 134.895 134.874 134.539C135.076 134.177 135.207 133.789 135.267 133.375L136.467 133.912C136.414 134.347 136.257 134.799 135.998 135.268C135.738 135.738 135.423 136.147 135.051 136.498Z" fill="white"/>
<path d="M139.426 131.744C139.176 132.05 138.906 132.327 138.616 132.575C138.332 132.816 138.048 133.019 137.763 133.184C137.471 133.344 137.181 133.455 136.893 133.518L136.268 132.41C136.54 132.321 136.809 132.205 137.075 132.062C137.342 131.919 137.592 131.75 137.826 131.555C138.06 131.361 138.268 131.152 138.451 130.928C138.744 130.57 138.901 130.256 138.922 129.987C138.941 129.704 138.85 129.481 138.649 129.316C138.477 129.176 138.298 129.129 138.111 129.175C137.923 129.207 137.711 129.321 137.478 129.516L136.35 130.461C135.882 130.85 135.425 131.067 134.977 131.112C134.529 131.143 134.107 130.997 133.711 130.674C133.353 130.381 133.123 130.031 133.02 129.623C132.924 129.208 132.948 128.768 133.093 128.301C133.238 127.835 133.497 127.374 133.869 126.919C134.082 126.658 134.316 126.426 134.569 126.222C134.816 126.013 135.075 125.84 135.349 125.703C135.622 125.552 135.9 125.456 136.183 125.414L136.789 126.544C136.554 126.588 136.319 126.67 136.085 126.79C135.843 126.903 135.617 127.042 135.408 127.207C135.197 127.358 135.015 127.527 134.863 127.713C134.564 128.079 134.405 128.403 134.385 128.685C134.371 128.961 134.469 129.184 134.678 129.355C134.835 129.483 135.008 129.537 135.198 129.518C135.387 129.499 135.589 129.397 135.804 129.211L136.931 128.266C137.417 127.854 137.88 127.623 138.32 127.572C138.766 127.514 139.191 127.649 139.593 127.979C139.959 128.277 140.193 128.631 140.295 129.038C140.398 129.445 140.377 129.882 140.232 130.349C140.079 130.809 139.811 131.274 139.426 131.744Z" fill="white"/>
<path d="M134.624 123.653L133.163 122.665L134.296 120.989L135.757 121.976L134.624 123.653ZM141.802 128.363L135.946 124.407L136.958 122.91L142.814 126.867L141.802 128.363Z" fill="white"/>
<path d="M147.542 124.22C147.234 124.798 146.876 125.306 146.468 125.744C146.073 126.178 145.638 126.514 145.162 126.751L144.297 125.701C144.577 125.545 144.838 125.362 145.08 125.152C145.331 124.948 145.555 124.723 145.751 124.478C145.947 124.233 146.117 123.974 146.262 123.702C146.566 123.132 146.652 122.632 146.521 122.202C146.402 121.768 146.071 121.406 145.527 121.116L144.379 120.505L144.44 120.39C144.806 120.749 145.012 121.202 145.058 121.751C145.1 122.286 144.985 122.809 144.714 123.32C144.415 123.881 144.027 124.302 143.55 124.583C143.064 124.859 142.526 124.987 141.936 124.968C141.346 124.948 140.741 124.773 140.12 124.443C139.499 124.112 139.02 123.71 138.683 123.235C138.338 122.757 138.149 122.241 138.115 121.688C138.074 121.131 138.202 120.572 138.501 120.011C138.782 119.484 139.159 119.095 139.631 118.844C140.099 118.58 140.577 118.502 141.065 118.609L141.011 118.711L139.723 118.025L140.552 116.469L146.164 119.458C146.836 119.816 147.334 120.234 147.658 120.712C147.99 121.195 148.143 121.729 148.115 122.314C148.095 122.904 147.904 123.54 147.542 124.22ZM143.733 122.24C143.996 121.747 144.034 121.265 143.848 120.795C143.661 120.325 143.275 119.933 142.688 119.621C142.101 119.308 141.565 119.208 141.079 119.321C140.585 119.429 140.207 119.729 139.944 120.223C139.681 120.716 139.643 121.198 139.829 121.668C140.007 122.134 140.389 122.523 140.976 122.835C141.563 123.148 142.103 123.25 142.598 123.142C143.092 123.034 143.47 122.734 143.733 122.24Z" fill="white"/>
<path d="M147.26 118.653L140.601 116.286L141.191 114.624L142.526 115.099L142.472 115.249C142.062 114.878 141.809 114.44 141.712 113.935C141.61 113.418 141.653 112.892 141.844 112.356C142.034 111.821 142.291 111.416 142.613 111.142C142.935 110.868 143.331 110.717 143.801 110.69C144.262 110.659 144.801 110.754 145.419 110.973L149.477 112.416L148.872 114.118L144.895 112.705C144.55 112.582 144.253 112.527 144.002 112.541C143.756 112.545 143.55 112.62 143.385 112.766C143.215 112.9 143.082 113.103 142.985 113.375C142.869 113.702 142.84 114.014 142.898 114.311C142.947 114.604 143.079 114.866 143.294 115.096C143.499 115.322 143.775 115.497 144.12 115.619L147.865 116.951L147.26 118.653Z" fill="white"/>
<path d="M150.545 107.954C150.4 108.74 150.127 109.39 149.729 109.904C149.33 110.418 148.831 110.782 148.233 110.994C147.637 111.198 146.97 111.231 146.231 111.094C145.511 110.961 144.908 110.697 144.422 110.304C143.938 109.901 143.593 109.411 143.386 108.833C143.172 108.245 143.127 107.614 143.251 106.942C143.374 106.278 143.621 105.736 143.993 105.315C144.365 104.894 144.835 104.604 145.404 104.444C145.974 104.276 146.619 104.258 147.339 104.391L147.865 104.488L146.894 109.732L145.871 109.543L146.61 105.55L146.781 105.816C146.137 105.697 145.618 105.748 145.224 105.969C144.821 106.189 144.57 106.564 144.472 107.094C144.399 107.492 144.43 107.851 144.567 108.17C144.696 108.478 144.917 108.739 145.23 108.954C145.536 109.158 145.92 109.302 146.385 109.388L146.484 109.407C147.005 109.503 147.451 109.502 147.822 109.404C148.193 109.307 148.494 109.112 148.724 108.822C148.954 108.531 149.113 108.149 149.2 107.675C149.272 107.287 149.287 106.888 149.246 106.478C149.194 106.067 149.071 105.677 148.874 105.307L150.16 105.031C150.374 105.413 150.514 105.87 150.582 106.402C150.651 106.934 150.638 107.451 150.545 107.954Z" fill="white"/>
<path d="M150.91 104.139L143.861 103.618L143.991 101.859L145.692 101.985L145.682 102.129C145.115 101.952 144.697 101.655 144.429 101.239C144.15 100.823 144.011 100.286 144.011 99.6288L144.009 99.0778L145.545 99.0755L145.569 100.121C145.584 100.711 145.733 101.167 146.019 101.487C146.295 101.807 146.706 101.987 147.254 102.028L151.045 102.308L150.91 104.139Z" fill="white"/>
<path d="M151.538 91.8795C151.532 92.6021 151.41 93.2273 151.174 93.7552C150.938 94.283 150.617 94.6896 150.209 94.975C149.792 95.2506 149.309 95.3859 148.76 95.381C148.327 95.377 147.932 95.2916 147.577 95.1245C147.213 94.9574 146.882 94.7184 146.587 94.4073C146.281 94.0962 146.005 93.7227 145.758 93.2869L145.474 92.7929L145.862 93.0566C145.434 93.4767 145.031 93.7814 144.654 93.9707C144.267 94.1502 143.871 94.2382 143.466 94.2345C142.984 94.2301 142.561 94.1107 142.197 93.8761C141.833 93.6416 141.552 93.3114 141.354 92.8856C141.155 92.4598 141.059 91.9627 141.064 91.3943C141.068 90.8644 141.164 90.4124 141.351 90.0382C141.537 89.6545 141.8 89.3582 142.139 89.1493C142.469 88.9403 142.86 88.8378 143.313 88.8419C143.679 88.8453 144.025 88.9207 144.351 89.0682C144.678 89.2157 144.989 89.4497 145.284 89.7704C145.58 90.0911 145.87 90.5177 146.154 91.0502L145.721 91.0318L148.359 88.5986L148.356 88.9888C147.963 88.754 147.502 88.5668 146.973 88.4271C146.444 88.2874 145.891 88.2005 145.313 88.1663L145.327 86.6633C146.117 86.6993 146.862 86.8314 147.564 87.0593C148.265 87.2777 148.884 87.5772 149.42 87.9578L148.972 87.9682L151.451 85.5481L151.431 87.7448L150.105 88.9758L150.108 88.5567C150.557 88.9847 150.909 89.489 151.164 90.0694C151.419 90.6402 151.544 91.2436 151.538 91.8795ZM150.108 91.7654C150.112 91.3029 150.029 90.8926 149.859 90.5346C149.679 90.1668 149.413 89.8319 149.059 89.53L149.521 89.5776L146.416 92.5268L146.495 91.776L146.737 92.1973C146.926 92.5266 147.117 92.7933 147.308 92.9974C147.489 93.2014 147.69 93.3526 147.91 93.451C148.122 93.5396 148.362 93.5851 148.632 93.5876C149.085 93.5917 149.443 93.4359 149.706 93.1203C149.969 92.8048 150.103 92.3531 150.108 91.7654ZM142.35 91.4059C142.347 91.7528 142.445 92.0331 142.646 92.2469C142.837 92.4606 143.101 92.569 143.438 92.5721C143.621 92.5737 143.795 92.5464 143.959 92.4901C144.114 92.4337 144.288 92.3341 144.482 92.1913C144.666 92.0484 144.895 91.853 145.167 91.6049L145.134 92.0093C144.906 91.6026 144.702 91.2827 144.521 91.0498C144.34 90.8073 144.159 90.6322 143.977 90.5246C143.795 90.4169 143.593 90.3621 143.371 90.3601C143.044 90.3571 142.792 90.4512 142.617 90.6423C142.442 90.8335 142.353 91.088 142.35 91.4059Z" fill="white"/>
<path d="M151.429 81.2986L141.24 81.2996L141.24 79.4496L149.854 79.4487L149.853 74.5636L151.429 74.5635L151.429 81.2986Z" fill="white"/>
<path d="M151.557 70.4887C151.561 71.221 151.415 71.8577 151.12 72.399C150.824 72.9403 150.403 73.3619 149.855 73.6637C149.298 73.9656 148.644 74.1187 147.892 74.123C147.141 74.1273 146.489 73.9817 145.938 73.6861C145.387 73.3906 144.961 72.9739 144.659 72.436C144.358 71.8982 144.205 71.2631 144.2 70.5308C144.196 69.7986 144.342 69.1618 144.637 68.6205C144.933 68.0792 145.355 67.6577 145.902 67.3558C146.45 67.054 147.099 66.9009 147.851 66.8966C148.602 66.8923 149.258 67.0379 149.819 67.3334C150.37 67.6289 150.796 68.0456 151.098 68.5835C151.4 69.1214 151.553 69.7564 151.557 70.4887ZM150.184 70.4966C150.181 69.957 149.986 69.5245 149.598 69.1991C149.201 68.8738 148.622 68.7133 147.861 68.7177C147.09 68.7221 146.518 68.8892 146.144 69.2189C145.761 69.5487 145.57 69.9834 145.573 70.523C145.576 71.0625 145.772 71.495 146.159 71.8204C146.537 72.1458 147.111 72.3064 147.882 72.3019C148.643 72.2976 149.22 72.1305 149.613 71.8006C149.997 71.4708 150.187 71.0361 150.184 70.4966Z" fill="white"/>
<path d="M154.023 62.2667C154.044 62.9215 153.987 63.5404 153.852 64.1232C153.726 64.6961 153.516 65.2043 153.222 65.6477L151.948 65.1687C152.113 64.8934 152.248 64.6046 152.354 64.3023C152.469 63.9997 152.551 63.6933 152.599 63.3833C152.646 63.0732 152.665 62.7641 152.655 62.456C152.634 61.8107 152.459 61.3344 152.131 61.027C151.812 60.7097 151.345 60.5611 150.728 60.5812L149.428 60.6237L149.424 60.4937C149.92 60.6221 150.325 60.9125 150.638 61.365C150.942 61.8082 151.103 62.3187 151.122 62.8965C151.143 63.5321 151.017 64.0905 150.743 64.5719C150.46 65.0535 150.058 65.433 149.537 65.7103C149.016 65.9876 148.403 66.1378 147.7 66.1608C146.997 66.1837 146.382 66.0737 145.853 65.8307C145.315 65.588 144.894 65.2354 144.589 64.773C144.275 64.3109 144.108 63.762 144.087 63.1264C144.068 62.5294 144.2 62.0045 144.484 61.5517C144.758 61.0897 145.134 60.7833 145.611 60.6328L145.615 60.7483L144.156 60.796L144.098 59.0337L150.454 58.826C151.215 58.8011 151.855 58.9151 152.374 59.1681C152.903 59.4208 153.301 59.8078 153.569 60.3293C153.846 60.8505 153.997 61.4962 154.023 62.2667ZM149.734 62.4502C149.716 61.8917 149.508 61.455 149.113 61.1401C148.717 60.8253 148.186 60.6788 147.522 60.7005C146.857 60.7222 146.343 60.9029 145.978 61.2426C145.603 61.5826 145.425 62.0319 145.444 62.5904C145.462 63.149 145.669 63.5857 146.065 63.9005C146.451 64.2157 146.976 64.3624 147.641 64.3407C148.305 64.3189 148.825 64.1381 149.199 63.7981C149.574 63.458 149.752 63.0088 149.734 62.4502Z" fill="white"/>
<path d="M150.874 54.3473C150.96 55.0745 150.887 55.7236 150.654 56.2945C150.42 56.8655 150.049 57.3316 149.538 57.6928C149.019 58.0552 148.385 58.2806 147.639 58.369C146.893 58.4574 146.229 58.3856 145.649 58.1535C145.068 57.9215 144.598 57.5552 144.238 57.0545C143.878 56.5538 143.655 55.9398 143.569 55.2126C143.482 54.4854 143.556 53.8364 143.789 53.2654C144.022 52.6944 144.394 52.2283 144.904 51.8671C145.414 51.5059 146.043 51.2811 146.789 51.1927C147.535 51.1043 148.204 51.1755 148.794 51.4064C149.374 51.6384 149.845 52.0047 150.205 52.5054C150.565 53.0061 150.788 53.6201 150.874 54.3473ZM149.511 54.5088C149.447 53.973 149.205 53.5651 148.783 53.2851C148.353 53.0062 147.759 52.9115 147.003 53.0011C146.238 53.0918 145.688 53.3219 145.353 53.6914C145.009 54.0621 144.869 54.5153 144.932 55.0511C144.996 55.587 145.238 55.9949 145.659 56.2749C146.071 56.556 146.659 56.6512 147.425 56.5605C148.181 56.471 148.736 56.2403 149.089 55.8685C149.434 55.4979 149.574 55.0446 149.511 54.5088Z" fill="white"/>
<path d="M149.007 46.3775L139.319 49.5348L138.746 47.7759L148.434 44.6186L149.007 46.3775Z" fill="white"/>
<path d="M147.059 40.7436C147.312 41.3061 147.399 41.8639 147.32 42.417C147.237 42.9612 146.999 43.4646 146.605 43.9271C146.202 44.3935 145.657 44.7808 144.972 45.0889C144.278 45.401 143.631 45.549 143.032 45.533C142.425 45.5209 141.89 45.3651 141.428 45.0658C140.962 44.7576 140.602 44.3223 140.35 43.7599C140.109 43.2238 140.031 42.6987 140.117 42.1848C140.199 41.662 140.423 41.2335 140.791 40.8993L140.856 41.0443L136.704 42.9109L135.963 41.2632L145.256 37.0855L145.979 38.6937L144.608 39.31L144.555 39.1914C145.071 39.1178 145.557 39.2219 146.011 39.5037C146.465 39.7854 146.814 40.1988 147.059 40.7436ZM145.6 40.8452C145.378 40.3531 145.025 40.0366 144.539 39.8958C144.044 39.759 143.45 39.8466 142.756 40.1587C142.053 40.4748 141.597 40.8592 141.388 41.3121C141.171 41.7689 141.173 42.2434 141.394 42.7355C141.616 43.2277 141.969 43.5441 142.455 43.6849C142.932 43.8296 143.522 43.744 144.225 43.4279C144.919 43.1159 145.38 42.7294 145.606 42.2687C145.823 41.8118 145.821 41.3374 145.6 40.8452Z" fill="white"/>
<path d="M142.876 32.978C143.304 33.6533 143.547 34.315 143.605 34.9632C143.662 35.6113 143.544 36.2168 143.251 36.7795C142.953 37.3341 142.486 37.8127 141.851 38.2153C141.233 38.6076 140.612 38.8248 139.988 38.8668C139.359 38.9007 138.773 38.7765 138.228 38.4942C137.671 38.209 137.209 37.7775 136.842 37.1999C136.481 36.6304 136.293 36.0648 136.279 35.5031C136.265 34.9415 136.412 34.4088 136.72 33.9053C137.023 33.3936 137.484 32.9415 138.102 32.5492L138.554 32.2627L141.411 36.7659L140.532 37.3234L138.357 33.8942L138.663 33.9733C138.11 34.3243 137.765 34.7148 137.627 35.1447C137.48 35.5797 137.552 36.0251 137.841 36.4807C138.058 36.8224 138.325 37.0637 138.643 37.2045C138.947 37.3424 139.287 37.3835 139.662 37.3278C140.024 37.2692 140.405 37.1134 140.803 36.8605L140.889 36.8062C141.336 36.5223 141.663 36.2183 141.868 35.8942C142.073 35.57 142.161 35.2232 142.132 34.8537C142.103 34.4841 141.959 34.096 141.701 33.6892C141.49 33.3556 141.229 33.053 140.92 32.7814C140.602 32.5149 140.246 32.313 139.851 32.1758L140.605 31.0982C141.022 31.2333 141.436 31.4726 141.848 31.816C142.26 32.1595 142.602 32.5468 142.876 32.978Z" fill="white"/>
<path d="M140.625 29.8653L135.248 34.4514L134.104 33.1098L135.182 32.1907L135.285 32.3117C134.759 32.4818 134.253 32.4826 133.767 32.3142C133.268 32.1447 132.834 31.8436 132.465 31.4111C132.096 30.9786 131.874 30.5542 131.797 30.1381C131.721 29.7219 131.788 29.3035 132 28.8829C132.203 28.4685 132.555 28.0487 133.053 27.6236L136.33 24.8287L137.502 26.2033L134.291 28.9419C134.013 29.1795 133.817 29.41 133.703 29.6333C133.584 29.8494 133.546 30.0651 133.59 30.2805C133.621 30.4948 133.73 30.7119 133.918 30.9319C134.143 31.1958 134.399 31.3767 134.685 31.4746C134.964 31.5788 135.256 31.5952 135.563 31.5238C135.862 31.4587 136.15 31.3074 136.429 31.0698L139.453 28.4907L140.625 29.8653Z" fill="white"/>
<path d="M133.088 21.6747C133.781 22.3165 134.137 22.9677 134.155 23.6284C134.173 24.289 133.875 24.9515 133.259 25.6159L131.167 27.8742L132.164 28.7975L131.24 29.7941L130.244 28.8708L128.81 30.4186L127.484 29.1908L128.918 27.6429L127.349 26.1892L128.273 25.1926L129.842 26.6463L131.865 24.4623C132.18 24.123 132.341 23.7998 132.35 23.4927C132.359 23.1855 132.197 22.8781 131.865 22.5703C131.766 22.4786 131.653 22.3943 131.528 22.3173C131.396 22.2473 131.26 22.1741 131.12 22.0976L131.823 20.9355C132.015 20.9827 132.23 21.0768 132.468 21.2178C132.698 21.3522 132.905 21.5045 133.088 21.6747Z" fill="white"/>
<path d="M126.473 27.5302L125.374 28.9093L123.791 27.6484L124.89 26.2694L126.473 27.5302ZM131.732 20.7438L127.328 26.2713L125.915 25.1455L130.319 19.618L131.732 20.7438Z" fill="white"/>
<path d="M126.655 16.8629C127.436 17.3942 127.884 17.985 128.001 18.6355C128.118 19.2861 127.921 19.9857 127.412 20.7345L125.68 23.2796L126.803 24.0439L126.039 25.1671L124.916 24.4028L123.729 26.1474L122.235 25.131L123.422 23.3865L121.654 22.1831L122.418 21.0599L124.186 22.2633L125.861 19.8018C126.121 19.4194 126.233 19.0758 126.196 18.7707C126.159 18.4657 125.953 18.1858 125.578 17.9311C125.467 17.8552 125.343 17.7885 125.208 17.7311C125.066 17.6817 124.921 17.6295 124.772 17.5747L125.293 16.3209C125.491 16.3388 125.717 16.3997 125.973 16.5037C126.22 16.6023 126.448 16.722 126.655 16.8629Z" fill="white"/>
<path d="M125.872 13.4937L123.05 15.6806L123.401 15.0161L122.8 22.8061L121.1 21.9083L121.716 16.0387L122.1 16.2413L117.56 20.0385L115.95 19.1879L124.223 12.6229L125.872 13.4937Z" fill="white"/>
<path d="M116.113 14.7675L115.879 15.8259L101.767 12.7049L102.001 11.6465L116.113 14.7675Z" fill="white"/>
<path d="M98.4773 8.70036L98.3274 18.8886L96.7811 18.8658L93.0414 11.7137L93.5039 11.7205L89.5699 18.7598L88.0525 18.7375L88.2023 8.54923L89.8787 8.57389L89.7692 16.0163L89.4513 16.0117L92.7751 10.1631L93.859 10.1791L97.0381 16.1377L96.6912 16.1326L96.8009 8.6757L98.4773 8.70036Z" fill="white"/>
<path d="M82.9549 8.4264C83.6968 8.42694 84.3422 8.57676 84.8912 8.87585C85.4402 9.18458 85.8638 9.61848 86.1621 10.1775C86.4604 10.7366 86.6093 11.3919 86.6087 12.1435C86.6082 12.895 86.4584 13.5405 86.1593 14.0798C85.8602 14.6288 85.4359 15.0477 84.8865 15.3363C84.3371 15.6346 83.6914 15.7835 82.9495 15.7829C82.4966 15.7826 82.0487 15.71 81.6055 15.5652C81.1624 15.4203 80.7964 15.2177 80.5075 14.9573L81.0432 13.7003C81.2936 13.9221 81.5777 14.091 81.8956 14.2068C82.2038 14.3227 82.5025 14.3807 82.7915 14.3809C83.4178 14.3814 83.9046 14.1842 84.2517 13.7894C84.5892 13.4042 84.7583 12.8503 84.7588 12.1277C84.7593 11.4147 84.5911 10.8509 84.2542 10.4363C83.9076 10.0314 83.4211 9.82868 82.7948 9.82822C82.5154 9.82802 82.2167 9.88561 81.8986 10.001C81.5806 10.1164 81.2962 10.2896 81.0455 10.5207L80.5117 9.24844C80.8009 8.99813 81.1721 8.79606 81.625 8.64223C82.0684 8.49802 82.5116 8.42608 82.9549 8.4264Z" fill="white"/>
<path d="M71.9719 8.43571C72.5019 8.43374 73.0127 8.48001 73.5045 8.57453C73.9866 8.65946 74.4351 8.78786 74.8501 8.95975C75.2554 9.13168 75.6175 9.33749 75.9363 9.57719L75.3781 11.039C75.0593 10.8186 74.7262 10.6271 74.3787 10.4646C74.0216 10.3118 73.6454 10.1928 73.25 10.1075C72.8451 10.0319 72.421 9.99497 71.9778 9.99662C71.2166 9.99946 70.663 10.1268 70.3171 10.3786C69.9712 10.64 69.799 10.9731 69.8005 11.3778C69.8013 11.5994 69.855 11.7871 69.9616 11.9408C70.0682 12.1042 70.2421 12.2433 70.4834 12.358C70.7247 12.4728 71.0431 12.5679 71.4384 12.6435L73.0294 12.97C73.9455 13.1593 74.6308 13.4796 75.0854 13.9307C75.5303 14.3916 75.7542 14.9978 75.757 15.7493C75.7593 16.3852 75.5928 16.9399 75.2573 17.4133C74.9218 17.8867 74.4559 18.2545 73.8595 18.5169C73.2631 18.7793 72.5746 18.9119 71.7942 18.9148C71.3317 18.9166 70.8883 18.87 70.464 18.7753C70.0301 18.6902 69.6345 18.5567 69.2773 18.375C68.9106 18.2029 68.5918 17.9921 68.3211 17.7426L68.8796 16.353C69.2855 16.6888 69.7297 16.9376 70.212 17.0996C70.6944 17.2713 71.2247 17.356 71.8028 17.3539C72.246 17.3522 72.6264 17.2882 72.9439 17.1617C73.2614 17.0353 73.5064 16.8561 73.679 16.6242C73.842 16.402 73.9229 16.1367 73.9217 15.8284C73.9204 15.4815 73.8038 15.2025 73.5717 14.9914C73.3397 14.79 72.9441 14.6324 72.3848 14.5189L70.8082 14.1924C69.8536 13.9936 69.1442 13.6782 68.6801 13.2464C68.2064 12.8146 67.9682 12.2373 67.9655 11.5147C67.9632 10.9077 68.125 10.3723 68.4509 9.90859C68.7768 9.44487 69.2427 9.08181 69.8488 8.8194C70.4452 8.56666 71.1529 8.43876 71.9719 8.43571Z" fill="white"/>
<path d="M64.3296 8.52225C64.8401 8.50932 65.3001 8.59406 65.7095 8.77647C66.1096 8.96875 66.4295 9.23053 66.6692 9.5618C66.8992 9.89332 67.0196 10.271 67.0304 10.6948C67.0435 11.2149 66.919 11.6277 66.6569 11.9332C66.395 12.2482 65.9623 12.4808 65.3589 12.6311C64.7555 12.7813 63.9433 12.8693 62.9223 12.8951L62.1999 12.9134L62.1735 11.8731L62.8815 11.8552C63.3342 11.8438 63.7142 11.8149 64.0215 11.7685C64.329 11.7318 64.5781 11.6725 64.7687 11.5906C64.9501 11.5185 65.0825 11.4188 65.166 11.2914C65.2399 11.1642 65.2745 11.0091 65.2699 10.8261C65.2618 10.5083 65.1445 10.251 64.9178 10.0543C64.6911 9.85765 64.3804 9.76431 63.9854 9.77431C63.6676 9.78235 63.3901 9.86167 63.1529 10.0122C62.9064 10.1727 62.7142 10.3848 62.5763 10.6485C62.4384 10.9122 62.3737 11.2127 62.3822 11.5498L62.4243 13.2114C62.4365 13.693 62.5512 14.037 62.7685 14.2436C62.9857 14.4501 63.3448 14.5471 63.8457 14.5344C64.2406 14.5244 64.6436 14.4515 65.0546 14.3158C65.4659 14.1898 65.8802 13.9962 66.2977 13.735L66.8489 14.9499C66.6029 15.1296 66.3129 15.2864 65.9789 15.4201C65.6356 15.5638 65.2769 15.674 64.903 15.751C64.5196 15.8378 64.1594 15.8855 63.8223 15.894C63.1288 15.9115 62.5578 15.82 62.1093 15.6193C61.6512 15.4188 61.306 15.1047 61.0734 14.6768C60.8412 14.2586 60.7165 13.7124 60.6994 13.0381L60.5912 8.76145L62.2816 8.71866L62.3197 10.2213L62.2041 10.2242C62.263 9.88538 62.3904 9.58818 62.5863 9.33262C62.7729 9.08694 63.0137 8.8929 63.3089 8.75049C63.6041 8.60808 63.9444 8.532 64.3296 8.52225Z" fill="white"/>
<path d="M59.4519 8.64478L60.313 15.6596L58.5629 15.8745L58.3903 14.4686L58.5481 14.4492C58.4637 14.7897 58.3256 15.0881 58.1339 15.3447C57.9421 15.6012 57.7008 15.8104 57.41 15.9723C57.1193 16.1342 56.7874 16.238 56.4144 16.2838C55.8502 16.3531 55.3699 16.2761 54.9736 16.053C54.5773 15.8298 54.2734 15.4497 54.0619 14.9126L54.2627 14.888C54.1336 15.4183 53.8668 15.8539 53.4621 16.1948C53.0585 16.5453 52.5699 16.7558 51.9961 16.8262C51.4605 16.892 51.0077 16.8408 50.6376 16.6726C50.2579 16.5057 49.9556 16.2176 49.7306 15.8083C49.5068 15.4087 49.355 14.8837 49.2751 14.2334L48.7504 9.95849L50.5435 9.73836L51.0595 13.9415C51.1252 14.4771 51.2642 14.858 51.4764 15.0844C51.6791 15.3119 51.9908 15.3998 52.4116 15.3482C52.7177 15.3106 52.9761 15.2012 53.1868 15.02C53.3987 14.8484 53.5498 14.6163 53.6401 14.3237C53.7208 14.0323 53.7371 13.6905 53.689 13.2984L53.2117 9.41082L55.0049 9.19069L55.5209 13.3939C55.5866 13.9294 55.7256 14.3104 55.9378 14.5367C56.1405 14.7642 56.4474 14.8527 56.8587 14.8023C57.1743 14.7635 57.4374 14.6536 57.6482 14.4724C57.8505 14.3019 57.9968 14.0704 58.0871 13.7778C58.1678 13.4863 58.1841 13.1446 58.136 12.7525L57.6588 8.86491L59.4519 8.64478Z" fill="white"/>
<path d="M45.3399 11.1766C45.8957 10.9856 46.3904 10.9276 46.8237 11.0028C47.2603 11.0871 47.6401 11.303 47.9633 11.6504C48.2774 12.0009 48.5393 12.4814 48.7492 13.0919L50.1445 17.1513L48.436 17.7386L47.0313 13.6518C46.9248 13.342 46.7945 13.0964 46.6405 12.915C46.4773 12.7368 46.2919 12.6273 46.0844 12.5866C45.8677 12.549 45.6226 12.5772 45.3493 12.6711C45.0395 12.7776 44.7942 12.9383 44.6133 13.1533C44.4265 13.3806 44.3132 13.6437 44.2733 13.9426C44.2275 14.2539 44.264 14.5826 44.3831 14.9289L45.675 18.6876L43.9665 19.2748L41.6692 12.5912L43.3367 12.018L43.8159 13.4121L43.6245 13.4779C43.6468 12.9201 43.8084 12.4417 44.1094 12.0428C44.4012 11.647 44.8114 11.3583 45.3399 11.1766Z" fill="white"/>
<path d="M37.3563 14.5639C38.0689 14.2009 38.7506 14.0212 39.4013 14.025C40.052 14.0287 40.6437 14.2031 41.1763 14.5481C41.7003 14.8975 42.1329 15.4071 42.474 16.0767C42.8064 16.7292 42.9642 17.368 42.9474 17.9929C42.9219 18.6222 42.7431 19.1945 42.4109 19.7098C42.0744 20.2381 41.6014 20.6575 40.9918 20.968C40.3908 21.2742 39.8101 21.4078 39.2496 21.3689C38.6891 21.33 38.1727 21.1335 37.7004 20.7794C37.2194 20.4297 36.8127 19.9286 36.4803 19.2761L36.2376 18.7996L40.9897 16.3788L41.462 17.306L37.8432 19.1495L37.9509 18.8514C38.2483 19.4352 38.6045 19.816 39.0195 19.9939C39.4389 20.1803 39.889 20.1511 40.3698 19.9062C40.7304 19.7225 40.9957 19.4791 41.1658 19.1762C41.3317 18.8863 41.4046 18.5518 41.3845 18.1727C41.3602 17.8066 41.2409 17.4132 41.0266 16.9925L40.9807 16.9024C40.7401 16.4302 40.4681 16.0767 40.1647 15.842C39.8613 15.6073 39.5243 15.487 39.1537 15.4812C38.783 15.4753 38.3831 15.5818 37.9538 15.8004C37.6018 15.9798 37.276 16.2106 36.9765 16.4929C36.6814 16.7839 36.4469 17.1196 36.2731 17.5001L35.2713 16.648C35.4449 16.2459 35.7221 15.856 36.1028 15.4782C36.4834 15.1005 36.9013 14.7957 37.3563 14.5639Z" fill="white"/>
<path d="M31.8747 17.8459C32.5771 17.3884 33.2215 17.2389 33.8077 17.3975C34.3912 17.5695 34.9248 18.0268 35.4086 18.7696L39.5734 25.1641L38.0595 26.1501L33.9421 19.8283C33.7896 19.5941 33.6258 19.4133 33.4508 19.2859C33.2729 19.1717 33.0891 19.119 32.8993 19.1276C32.7094 19.1363 32.5136 19.2063 32.3117 19.3378C32.2229 19.3956 32.1367 19.4575 32.0532 19.5234C31.9696 19.5894 31.8954 19.6607 31.8304 19.7375L31.0737 18.5228C31.198 18.3958 31.3276 18.277 31.4624 18.1662C31.5839 18.0526 31.7213 17.9458 31.8747 17.8459Z" fill="white"/>
<path d="M25.0833 23.3768C25.4675 23.0119 25.871 22.6951 26.2936 22.4265C26.7026 22.1576 27.1171 21.9434 27.5369 21.7838C27.9498 21.6309 28.3544 21.5322 28.7509 21.4879L29.3475 22.9345C28.9643 22.9928 28.5906 23.082 28.2263 23.2021C27.8616 23.3359 27.5062 23.5073 27.1601 23.7165C26.8136 23.9393 26.4796 24.2033 26.1583 24.5086C25.6063 25.0328 25.2909 25.5052 25.2119 25.9257C25.1396 26.3532 25.2428 26.7137 25.5215 27.0071C25.6741 27.1678 25.8419 27.2675 26.0249 27.3063C26.2146 27.3521 26.4366 27.3339 26.6908 27.2519C26.9451 27.1698 27.242 27.0207 27.5815 26.8045L28.9632 25.9507C29.7596 25.46 30.4779 25.2229 31.1181 25.2394C31.758 25.2695 32.3367 25.557 32.8543 26.1019C33.2923 26.563 33.5516 27.0808 33.6322 27.6554C33.7128 28.2299 33.6262 28.8172 33.3722 29.4173C33.1182 30.0173 32.7083 30.5861 32.1424 31.1236C31.8071 31.4421 31.4525 31.7124 31.0788 31.9345C30.7047 32.1702 30.3253 32.3445 29.9408 32.4573C29.5559 32.5837 29.1793 32.649 28.8112 32.6531L28.2643 31.2589C28.79 31.2248 29.2839 31.1012 29.746 30.8881C30.2148 30.6821 30.6587 30.38 31.0779 29.9819C31.3993 29.6766 31.6321 29.3691 31.7764 29.0593C31.9206 28.7495 31.976 28.4511 31.9425 28.1639C31.9087 27.8905 31.7856 27.6419 31.5732 27.4184C31.3343 27.1669 31.0581 27.0439 30.7444 27.0495C30.4374 27.062 30.0415 27.2188 29.5567 27.5198L28.1855 28.3638C27.3545 28.874 26.622 29.1312 25.9881 29.1353C25.3472 29.1461 24.7779 28.8895 24.2802 28.3655C23.8621 27.9254 23.6126 27.4248 23.5316 26.8639C23.4507 26.3029 23.5407 25.7191 23.8016 25.1124C24.0622 24.5194 24.4895 23.9409 25.0833 23.3768Z" fill="white"/>
<path d="M21.795 26.8896L29.8454 33.1357L28.738 34.5631L25.1524 31.7811L25.2764 31.6213C25.55 32.1018 25.6536 32.5969 25.5875 33.1065C25.523 33.6297 25.3166 34.1159 24.9681 34.565C24.6196 35.0142 24.2494 35.3184 23.8575 35.4777C23.4656 35.6371 23.0422 35.6562 22.5874 35.535C22.1402 35.4198 21.6578 35.1613 21.1402 34.7597L17.7373 32.1195L18.8447 30.6922L22.1791 33.2792C22.4684 33.5036 22.7339 33.6487 22.9757 33.7143C23.2115 33.7875 23.4304 33.7805 23.6323 33.6932C23.8358 33.6195 24.0262 33.4684 24.2034 33.24C24.4161 32.9659 24.5412 32.6789 24.5789 32.3788C24.6242 32.0847 24.5807 31.7949 24.4485 31.5094C24.324 31.2299 24.1171 30.9778 23.8278 30.7534L20.6876 28.317L21.795 26.8896Z" fill="white"/>
<path d="M15.3687 35.8803C15.73 35.2433 16.1736 34.7638 16.6995 34.4418C17.2255 34.1197 17.8011 33.9643 18.4262 33.9754C19.0596 33.9912 19.7032 34.1845 20.357 34.5552C21.0107 34.926 21.5028 35.3767 21.8332 35.9074C22.1636 36.4382 22.3256 37.0119 22.3193 37.6286C22.313 38.2453 22.1292 38.8721 21.768 39.5091C21.4067 40.1461 20.9631 40.6256 20.4371 40.9476C19.9112 41.2697 19.3356 41.4251 18.7105 41.414C18.0855 41.4029 17.446 41.212 16.7923 40.8413C16.1385 40.4706 15.6423 40.0175 15.3035 39.482C14.9731 38.9512 14.8111 38.3775 14.8174 37.7608C14.8237 37.1441 15.0075 36.5173 15.3687 35.8803ZM16.5631 36.5576C16.2969 37.0269 16.2507 37.4991 16.4243 37.9742C16.6064 38.4541 17.0285 38.8817 17.6906 39.2572C18.3611 39.6374 18.9406 39.7778 19.4291 39.6782C19.9259 39.5833 20.3074 39.3012 20.5736 38.8318C20.8398 38.3625 20.886 37.8903 20.7124 37.4152C20.5471 36.9448 20.1292 36.5196 19.4587 36.1393C18.7965 35.7638 18.2129 35.6211 17.7076 35.7112C17.2108 35.8061 16.8293 36.0882 16.5631 36.5576Z" fill="white"/>
<path d="M13.4126 39.8974L22.8675 43.6959L22.194 45.3723L16.5076 43.0878L16.4969 43.1146L18.225 46.8773L17.4114 48.9024L15.2499 44.2024L15.9473 44.4825L10.7779 46.4554L11.6023 44.4035L15.652 42.7752L15.6627 42.7484L12.7391 41.5738L13.4126 39.8974Z" fill="white"/>
<path d="M10.0482 49.2251C10.2283 48.5153 10.5295 47.9357 10.9518 47.4862C11.374 47.0367 11.888 46.7347 12.4939 46.5803C13.109 46.4283 13.7808 46.4447 14.5093 46.6296C15.2377 46.8145 15.8314 47.1192 16.2902 47.5438C16.7491 47.9685 17.0569 48.479 17.2137 49.0755C17.3705 49.672 17.3588 50.3251 17.1786 51.0349C16.9985 51.7446 16.6973 52.3243 16.275 52.7738C15.8528 53.2233 15.3387 53.5253 14.7329 53.6797C14.1271 53.8341 13.46 53.8189 12.7315 53.634C12.0031 53.4491 11.4047 53.1431 10.9365 52.7162C10.4777 52.2915 10.1699 51.781 10.0131 51.1845C9.85632 50.588 9.86801 49.9349 10.0482 49.2251ZM11.379 49.5629C11.2462 50.0859 11.3264 50.5536 11.6193 50.9659C11.9217 51.3806 12.4417 51.6816 13.1795 51.8689C13.9266 52.0585 14.5226 52.0408 14.9674 51.8157C15.4216 51.5929 15.7151 51.2201 15.8478 50.6971C15.9805 50.1741 15.9004 49.7064 15.6074 49.2941C15.3238 48.8841 14.8084 48.5843 14.0613 48.3947C13.3235 48.2074 12.7228 48.224 12.2593 48.4443C11.8052 48.667 11.5117 49.0399 11.379 49.5629Z" fill="white"/>
<path d="M12.2241 56.0325L13.3077 56.0631L12.8989 70.5103L11.8154 70.4796L12.2241 56.0325Z" fill="white"/>
</svg>
