<svg width="512" height="512" viewBox="0 0 512 512" fill="none" xmlns="http://www.w3.org/2000/svg">
<rect width="512" height="512" rx="96" fill="black"/>
<g opacity="0.994695">
<path fill-rule="evenodd" clip-rule="evenodd" d="M175.118 156.613C179.761 153.363 185.23 152 190.993 152H204.836C210.561 152 216.072 153.35 220.582 156.858L220.794 157.023L220.995 157.202C224.287 160.127 227.53 163.949 230.722 168.417L230.776 168.492L255.785 205.233L280.795 168.492L280.849 168.417C284.02 163.977 287.236 160.143 290.544 157.202L290.9 156.886L291.29 156.613C295.932 153.363 301.401 152 307.165 152H321.007C326.717 152 332.264 153.343 336.783 156.858L336.996 157.023L337.197 157.202C340.506 160.143 343.722 163.977 346.893 168.417L346.947 168.492L456.579 329.559L456.7 329.759C457.657 331.354 458.524 332.891 459.247 334.34L459.398 334.643L459.524 334.957C460.264 336.808 461 339.158 461 341.592C461 346.167 459.445 350.43 456.179 353.826C452.745 357.748 447.996 359.184 443.408 359.184H395.62C389.273 359.184 383.241 357.355 378.649 352.76L378.479 352.59L378.319 352.411C375.708 349.473 373.289 346.378 371.039 343.163L370.969 343.062L313.858 256.025L302.324 273.615L340.408 329.559L340.529 329.759C341.487 331.355 342.353 332.891 343.076 334.338L343.227 334.642L343.353 334.957C344.093 336.807 344.829 339.158 344.829 341.592C344.829 346.167 343.274 350.431 340.008 353.826C336.574 357.747 331.825 359.184 327.237 359.184H279.449C273.102 359.184 267.07 357.354 262.478 352.76L262.308 352.59L262.148 352.411C259.888 349.868 257.772 347.208 255.785 344.454C253.798 347.207 251.683 349.866 249.423 352.409C245.009 357.378 238.832 359.184 232.551 359.184H184.302C179.541 359.184 175.201 357.473 171.81 354.078L171.548 353.816L171.311 353.531C168.425 350.067 167.171 345.906 167.171 341.592C167.171 339.155 167.908 336.807 168.646 334.959L168.774 334.639L168.928 334.331C169.44 333.308 169.961 332.18 170.457 330.938L170.789 330.106L209.244 273.618L197.688 256.02L140.602 343.062L140.531 343.164C138.26 346.408 135.809 349.498 133.221 352.41C128.817 357.367 122.68 359.184 116.38 359.184H68.1315C63.3699 359.184 59.0303 357.473 55.6394 354.079L55.3773 353.816L55.14 353.532C52.2544 350.067 51 345.906 51 341.592C51 339.156 51.737 336.807 52.4752 334.959L52.6029 334.64L52.7569 334.332C53.2234 333.4 53.7195 332.28 54.2553 330.939L54.5876 330.107L164.593 168.492L164.647 168.417C167.839 163.949 171.082 160.128 174.373 157.202L174.729 156.886L175.118 156.613ZM184.874 169.818C182.904 171.641 180.614 174.286 178.045 177.875L69.1395 337.874C68.6454 339.071 68.1352 340.22 67.6019 341.31C67.5046 341.57 67.4437 341.763 67.4075 341.892C67.4281 342.283 67.4882 342.54 67.5539 342.713C67.6196 342.737 67.7909 342.784 68.1315 342.784H116.38C119.61 342.784 120.601 341.922 120.962 341.517C123.113 339.095 125.147 336.534 127.026 333.858L197.68 226.129L228.971 273.783L185.335 337.883C184.812 339.133 184.282 340.277 183.771 341.314C183.675 341.573 183.614 341.764 183.578 341.892C183.599 342.282 183.659 342.54 183.725 342.713C183.79 342.736 183.962 342.784 184.302 342.784H232.551C235.8 342.784 236.812 341.911 237.163 341.516M184.874 169.818C186.184 169.01 188.091 168.4 190.993 168.4H204.836C207.838 168.4 209.447 169.049 210.339 169.674C212.343 171.501 214.686 174.19 217.324 177.876L255.785 234.377L294.247 177.875C296.833 174.261 299.095 171.626 301.046 169.818C302.356 169.009 304.264 168.4 307.165 168.4H321.007C324.022 168.4 325.654 169.055 326.541 169.675C328.527 171.487 330.839 174.165 333.495 177.875L442.757 338.398C443.439 339.54 443.985 340.515 444.41 341.342C444.497 341.576 444.553 341.754 444.588 341.877C444.569 342.104 444.529 342.21 444.518 342.238C444.507 342.265 444.477 342.34 444.334 342.483L444.078 342.739C443.94 342.761 443.722 342.784 443.408 342.784H395.62C392.611 342.784 391.177 342.025 390.38 341.293C388.325 338.963 386.384 336.481 384.544 333.858L313.853 226.124L282.601 273.786L326.586 338.397C327.267 339.539 327.813 340.514 328.24 341.342C328.326 341.576 328.383 341.754 328.417 341.877C328.398 342.103 328.358 342.209 328.347 342.237C328.336 342.265 328.306 342.339 328.163 342.482L327.907 342.738C327.769 342.761 327.551 342.784 327.237 342.784H279.449C276.44 342.784 275.006 342.025 274.209 341.293C272.154 338.963 270.213 336.48 268.373 333.858L255.785 314.676L243.197 333.857C241.298 336.563 239.292 339.121 237.163 341.516" fill="#FEFEFF"/>
<path fill-rule="evenodd" clip-rule="evenodd" d="M291.29 156.613C295.932 153.363 301.401 152 307.165 152H321.037C326.762 152 332.273 153.35 336.783 156.858L336.996 157.023L337.197 157.202C340.506 160.143 343.722 163.977 346.893 168.417L346.947 168.492L456.579 329.559L456.702 329.764C457.659 331.36 458.523 332.893 459.244 334.335L459.398 334.643L459.527 334.966C460.257 336.799 461 339.152 461 341.592C461 346.171 459.443 350.432 456.179 353.826C452.765 357.723 448.064 359.184 443.439 359.184L395.62 359.184C389.271 359.184 383.24 357.351 378.649 352.76L378.479 352.59L378.319 352.411C375.745 349.515 373.391 346.473 371.204 343.365L371.115 343.237L269.02 185.778L280.795 168.492L280.849 168.417C284.02 163.977 287.236 160.143 290.544 157.202L290.9 156.886L291.29 156.613ZM301.046 169.818C299.095 171.626 296.833 174.261 294.247 177.875L288.711 186.002L384.704 334.052C386.52 336.624 388.399 339.045 390.38 341.293C391.177 342.025 392.611 342.784 395.62 342.784L443.439 342.784C443.733 342.784 443.94 342.764 444.073 342.744L444.331 342.486C444.479 342.338 444.507 342.264 444.518 342.238C444.529 342.211 444.568 342.105 444.588 341.881C444.553 341.756 444.497 341.578 444.41 341.342C443.985 340.515 443.439 339.54 442.757 338.398L333.495 177.875C330.839 174.165 328.527 171.487 326.541 169.675C325.649 169.05 324.039 168.4 321.037 168.4H307.165C304.264 168.4 302.356 169.009 301.046 169.818Z" fill="#FEFEFF"/>
<path fill-rule="evenodd" clip-rule="evenodd" d="M175.118 156.613C179.761 153.363 185.23 152 190.993 152L204.866 152V152C210.591 152 216.102 153.35 220.612 156.858L220.825 157.024L221.026 157.202C224.334 160.143 227.551 163.977 230.722 168.417L230.776 168.492L340.408 329.559L340.531 329.764C341.488 331.36 342.352 332.893 343.073 334.335L343.227 334.642L343.356 334.966C344.086 336.799 344.829 339.152 344.829 341.592C344.829 346.171 343.272 350.431 340.008 353.826C336.594 357.723 331.893 359.184 327.268 359.184L279.449 359.184C273.1 359.184 267.069 357.351 262.478 352.76L262.308 352.59L262.148 352.411C259.574 349.515 257.22 346.473 255.033 343.365L254.944 343.237L152.849 185.778L164.625 168.491L164.678 168.417C167.849 163.977 171.065 160.143 174.373 157.202L174.729 156.886L175.118 156.613ZM184.874 169.818C182.922 171.627 180.662 174.262 178.075 177.876L172.54 186.002L268.533 334.052C270.349 336.624 272.228 339.045 274.209 341.293C275.006 342.025 276.44 342.784 279.449 342.784L327.268 342.784C327.562 342.784 327.769 342.764 327.902 342.744L328.16 342.486C328.308 342.338 328.336 342.263 328.347 342.237C328.358 342.21 328.397 342.105 328.417 341.881C328.382 341.756 328.327 341.578 328.24 341.342C327.813 340.514 327.267 339.539 326.586 338.397L217.324 177.876C214.669 174.165 212.355 171.486 210.368 169.674C209.477 169.049 207.868 168.4 204.866 168.4L190.993 168.4V168.4C188.091 168.4 186.184 169.01 184.874 169.818Z" fill="#FEFEFF"/>
</g>
</svg>
